<?xml version="1.0" standalone="no"?>
<!DOCTYPE svg PUBLIC "-//W3C//DTD SVG 20010904//EN"
 "http://www.w3.org/TR/2001/REC-SVG-20010904/DTD/svg10.dtd">
<svg version="1.0" xmlns="http://www.w3.org/2000/svg"
 width="200.000000pt" height="200.000000pt" viewBox="0 0 200.000000 200.000000"
 preserveAspectRatio="xMidYMid meet">

<g transform="translate(0.000000,200.000000) scale(0.100000,-0.100000)"
fill="#000000" stroke="none">
<path d="M680 1411 c-6 -12 -10 -101 -10 -219 0 -173 2 -201 17 -213 10 -9 51
-15 120 -17 88 -3 103 -6 99 -19 -3 -8 -6 -21 -6 -29 0 -8 -9 -14 -20 -14 -11
0 -20 -4 -20 -10 0 -6 53 -10 140 -10 87 0 140 4 140 10 0 6 -9 10 -20 10 -11
0 -20 6 -20 14 0 8 -3 21 -6 30 -5 14 7 16 93 16 150 0 143 -12 143 231 0 119
-4 208 -10 220 -10 18 -24 19 -320 19 -296 0 -310 -1 -320 -19z m625 -211 l0
-215 -305 0 -305 0 -3 205 c-1 112 0 210 3 217 3 11 67 13 307 11 l303 -3 0
-215z m-330 -260 c23 -25 30 -25 54 1 25 27 51 19 51 -16 0 -25 -1 -25 -80
-25 l-80 0 0 30 c0 36 27 41 55 10z m37 8 c-9 -9 -15 -9 -24 0 -9 9 -7 12 12
12 19 0 21 -3 12 -12z"/>
<path d="M717 1393 c-11 -10 -8 -381 3 -388 5 -3 18 -1 28 4 12 7 22 7 29 0 6
-6 107 -8 259 -7 l249 3 3 193 c2 178 1 192 -15 192 -17 0 -18 -13 -15 -170
l3 -170 -176 0 c-135 0 -184 4 -212 15 -85 36 -113 89 -113 215 l0 90 235 0
c216 0 283 8 204 24 -42 8 -474 8 -482 -1z"/>
<path d="M845 1330 c-4 -6 2 -18 13 -28 27 -23 52 -117 46 -167 -7 -50 12 -81
44 -71 12 4 22 14 22 22 0 23 72 19 88 -6 16 -25 38 -26 52 -1 24 46 16 51
-86 51 -111 0 -118 15 -12 25 40 4 81 11 90 16 14 8 32 69 33 114 0 6 -49 12
-116 15 -92 4 -121 9 -136 23 -23 20 -29 21 -38 7z m98 -71 c4 -15 1 -19 -11
-17 -21 4 -29 38 -9 38 8 0 17 -9 20 -21z m57 1 c0 -11 -6 -20 -14 -20 -7 0
-16 9 -19 20 -4 15 0 20 14 20 12 0 19 -7 19 -20z m44 14 c18 -7 10 -34 -10
-34 -8 0 -14 9 -14 20 0 22 1 23 24 14z m64 -16 c-6 -18 -28 -21 -28 -4 0 9 7
16 16 16 9 0 14 -5 12 -12z m-158 -64 c0 -28 -15 -25 -23 6 -3 13 0 20 9 20 8
0 14 -10 14 -26z m50 6 c0 -11 -4 -20 -10 -20 -5 0 -10 2 -10 4 0 2 -3 11 -6
20 -4 11 -1 16 10 16 9 0 16 -8 16 -20z m50 0 c0 -11 -7 -20 -15 -20 -8 0 -15
9 -15 20 0 11 7 20 15 20 8 0 15 -9 15 -20z m48 8 c-6 -18 -28 -21 -28 -4 0 9
7 16 16 16 9 0 14 -5 12 -12z"/>
</g>
</svg>
